#!OML:ASF H:\Dans Jumps\Project 1\Capture day 1\Session 1\subject.ASF
:FULLY-SPECIFIED
:DEGREES
463
root 0.700797 17.7554 6.4261 5.70954 1.39918 -1.85887
lowerback -1.75682 -0.473747 -0.0412298
upperback 2.04026 -0.672814 1.50222
thorax 3.09909 -0.354795 1.53743
lowerneck -13.6086 -0.260281 -2.06316
upperneck 25.9994 -0.137753 1.06346
head 10.5845 -0.138247 0.714348
rclavicle -1.9133e-015 -1.33186e-014
rhumerus -23.8152 -16.6593 -82.6509
rradius 23.1358
rwrist 35.0429
rhand -19.1926 -26.885
rfingers 7.12502
rthumb 7.11927 -56.7453
lclavicle -1.9133e-015 -1.33186e-014
lhumerus -16.7361 6.66561 89.3554
lradius 13.4756
lwrist -4.71965
lhand -25.8412 -5.85962
lfingers 7.12502
lthumb 0.699094 24.119
rfemur -13.8252 -1.96562 20.3955
rtibia 19.5641
rfoot -10.6036 -0.286942
rtoes 17.9936
lfemur -12.4995 6.60757 -17.3983
ltibia 18.1698
lfoot -9.04166 2.18816
ltoes -3.28958
464
root 0.703017 17.7555 6.42897 5.6977 1.37846 -1.87755
lowerback -1.77351 -0.464916 -0.0282745
upperback 2.02459 -0.661524 1.50736
thorax 3.09196 -0.34885 1.53586
lowerneck -13.5992 -0.260613 -2.06673
upperneck 26.0034 -0.13701 1.06166
head 10.5842 -0.1385 0.714422
rclavicle -1.73937e-015 1.39149e-014
rhumerus -23.6944 -16.3681 -82.8195
rradius 23.3338
rwrist 34.7468
rhand -19.2424 -26.87
rfingers 7.12502
rthumb 7.07114 -56.7319
lclavicle -1.73937e-015 1.39149e-014
lhumerus -16.6679 6.73349 89.3663
lradius 13.4674
lwrist -4.764
lhand -25.8156 -5.83701
lfingers 7.12502
lthumb 0.723813 24.1415
rfemur -13.7836 -1.95119 20.4064
rtibia 19.523
rfoot -10.5946 -0.280274
rtoes 18.0019
lfemur -12.4697 6.60458 -17.3811
ltibia 18.1683
lfoot -9.05595 2.21486
ltoes -3.27534
465
root 0.705421 17.7555 6.43188 5.68561 1.35849 -1.88773
lowerback -1.79252 -0.45653 -0.0208865
upperback 2.01212 -0.65065 1.51022
thorax 3.08947 -0.343239 1.53504
lowerneck -13.5876 -0.259283 -2.06713
upperneck 26 -0.132811 1.05286
head 10.5806 -0.137659 0.711856
rclavicle -5.54112e-015 -3.97569e-016
rhumerus -23.5786 -16.058 -82.9903
rradius 23.5476
rwrist 34.429
rhand -19.2673 -26.8764
rfingers 7.12502
rthumb 7.04717 -56.7391
lclavicle -5.54112e-015 -3.97569e-016
lhumerus -16.5945 6.77945 89.3817
lradius 13.4617
lwrist -4.78052
lhand -25.8001 -5.8169
lfingers 7.12502
lthumb 0.738841 24.1616
rfemur -13.747 -1.95197 20.4076
rtibia 19.4928
rfoot -10.5906 -0.26072
rtoes 18.0027
lfemur -12.4376 6.60348 -17.3746
ltibia 18.1631
lfoot -9.06903 2.23755
ltoes -3.26064
466
root 0.707932 17.7555 6.43481 5.67193 1.34117 -1.89035
lowerback -1.81268 -0.448922 -0.0184696
upperback 2.00354 -0.640648 1.51064
thorax 3.09169 -0.338176 1.53445
lowerneck -13.5805 -0.259716 -2.06289
upperneck 25.9914 -0.131154 1.04031
head 10.576 -0.137938 0.706808
rclavicle -1.98785e-015 3.97569e-016
rhumerus -23.4632 -15.7462 -83.1604
rradius 23.7668
rwrist 34.1102
rhand -19.276 -26.8945
rfingers 7.12502
rthumb 7.03875 -56.7575
lclavicle -1.98785e-015 3.97569e-016
lhumerus -16.5268 6.81346 89.3997
lradius 13.4715
lwrist -4.77901
lhand -25.793 -5.7941
lfingers 7.12502
lthumb 0.74563 24.1843
rfemur -13.7131 -1.96588 20.4007
rtibia 19.4726
rfoot -10.592 -0.233189
rtoes 17.9981
lfemur -12.4016 6.60337 -17.3772
ltibia 18.1541
lfoot -9.08082 2.25545
ltoes -3.245
467
root 0.71051 17.7554 6.43796 5.6564 1.32416 -1.886
lowerback -1.83616 -0.441659 -0.0208075
upperback 1.99805 -0.630953 1.50862
thorax 3.09901 -0.333371 1.53397
lowerneck -13.5721 -0.260254 -2.05299
upperneck 25.9739 -0.129956 1.02362
head 10.5679 -0.138324 0.699203
rclavicle -4.91992e-015 -8.34896e-015
rhumerus -23.3511 -15.4348 -83.3293
rradius 23.9909
rwrist 33.7852
rhand -19.2908 -26.9194
rfingers 7.12502
rthumb 7.02442 -56.7828
lclavicle -4.91992e-015 -8.34896e-015
lhumerus -16.4664 6.8451 89.4183
lradius 13.4929
lwrist -4.76916
lhand -25.7916 -5.77766
lfingers 7.12502
lthumb 0.74698 24.2008
rfemur -13.6809 -1.99086 20.3861
rtibia 19.462
rfoot -10.6005 -0.198714
rtoes 17.9783
lfemur -12.3606 6.60637 -17.3881
ltibia 18.1418
lfoot -9.09349 2.26943
ltoes -3.22959
468
root 0.713005 17.7552 6.4412 5.63666 1.3085 -1.8809
lowerback -1.85829 -0.434498 -0.0240545
upperback 1.99487 -0.62138 1.50655
thorax 3.10797 -0.328662 1.53396
lowerneck -13.5615 -0.260897 -2.03977
upperneck 25.9476 -0.129782 1.00692
head 10.5561 -0.138815 0.690851
rclavicle -3.97569e-016 1.11319e-014
rhumerus -23.242 -15.1458 -83.4906
rradius 24.2125
rwrist 33.4834
rhand -19.319 -26.9273
rfingers 7.12502
rthumb 6.99719 -56.7917
lclavicle -3.97569e-016 1.11319e-014
lhumerus -16.4204 6.87237 89.4381
lradius 13.5297
lwrist -4.7489
lhand -25.8002 -5.78912
lfingers 7.12502
lthumb 0.738711 24.1893
rfemur -13.6468 -2.01577 20.3712
rtibia 19.4586
rfoot -10.6129 -0.167907
rtoes 17.9502
lfemur -12.3148 6.61169 -17.3991
ltibia 18.1296
lfoot -9.1077 2.28035
ltoes -3.21697
469
root 0.715353 17.7549 6.44433 5.61475 1.2957 -1.87465
lowerback -1.8786 -0.429462 -0.0291182
upperback 1.99209 -0.614585 1.50503
thorax 3.11641 -0.325386 1.53541
lowerneck -13.5439 -0.25938 -2.02602
upperneck 25.9097 -0.127603 0.993016
head 10.5386 -0.137963 0.683602
rclavicle -5.1684e-015 1.98785e-016
rhumerus -23.1313 -14.8715 -83.6462
rradius 24.4219
rwrist 33.1961
rhand -19.3559 -26.9147
rfingers 7.12502
rthumb 6.96165 -56.7803
lclavicle -5.1684e-015 1.98785e-016
lhumerus -16.3878 6.88472 89.4605
lradius 13.5826
lwrist -4.69813
lhand -25.8082 -5.79667
lfingers 7.12502
lthumb 0.730946 24.1818
rfemur -13.6131 -2.04018 20.3555
rtibia 19.4616
rfoot -10.6275 -0.141696
rtoes 17.9176
lfemur -12.2681 6.6171 -17.4108
ltibia 18.1198
lfoot -9.1239 2.28911
ltoes -3.19899
